<?xml version="1.0" standalone="no"?>
<!DOCTYPE svg PUBLIC "-//W3C//DTD SVG 20010904//EN"
 "http://www.w3.org/TR/2001/REC-SVG-20010904/DTD/svg10.dtd">
<svg version="1.0" xmlns="http://www.w3.org/2000/svg"
 width="700.000000pt" height="700.000000pt" viewBox="0 0 700.000000 700.000000"
 preserveAspectRatio="xMidYMid meet">
<metadata>
Created by potrace 1.11, written by Peter Selinger 2001-2013
</metadata>
<g transform="translate(0.000000,700.000000) scale(0.100000,-0.100000)"
fill="#000000" stroke="none">
<path d="M20 3500 l0 -3500 3490 0 3490 0 0 3500 0 3500 -3490 0 -3490 0 0
-3500z m2743 2110 c-4 -4 -63 -27 -130 -51 l-123 -43 0 -227 0 -226 128 -45
127 -45 3 -131 3 -131 -83 33 c-46 18 -345 135 -666 261 l-583 229 3 54 3 54
465 185 c256 101 553 219 660 261 l195 78 3 -125 c1 -68 -1 -128 -5 -131z
m1277 -955 c0 -646 2 -1175 5 -1175 3 0 25 16 50 35 129 98 312 154 536 162
639 25 1028 -294 1088 -891 7 -70 11 -412 11 -948 l0 -838 -307 2 -308 3 -5
885 -5 885 -23 54 c-90 211 -274 331 -508 331 -163 0 -338 -70 -462 -185 l-67
-63 -5 -953 -5 -954 -312 -3 -313 -2 0 2415 0 2415 315 0 315 0 0 -1175z
m-2378 78 l3 -218 553 -3 552 -2 0 -115 0 -115 -555 0 -555 0 0 -210 0 -210
-105 0 -105 0 0 545 0 545 105 0 105 0 2 -217z m1108 -1128 l0 -415 -660 0
-660 0 0 115 0 115 560 0 560 0 0 300 0 300 100 0 100 0 0 -415z m-1108 -837
l3 -303 153 -3 152 -3 0 221 0 220 100 0 100 0 0 -220 0 -220 198 2 197 3 3
298 2 297 100 0 100 0 0 -415 0 -415 -660 0 -660 0 0 420 0 420 105 0 105 0 2
-302z m610 -672 c154 -30 252 -80 344 -178 58 -61 91 -120 125 -223 20 -63 23
-93 27 -313 l4 -242 -659 2 -658 3 0 250 c0 230 2 256 22 320 58 185 206 325
395 375 90 23 292 27 400 6z"/>
<path d="M2083 5366 c-123 -40 -225 -75 -228 -77 -3 -3 98 -38 223 -79 125
-40 233 -75 240 -77 9 -4 12 30 12 151 0 118 -3 156 -12 156 -7 -1 -113 -33
-235 -74z"/>
<path d="M1940 1859 c-65 -13 -164 -64 -196 -102 -63 -75 -101 -215 -88 -328
l7 -59 447 0 448 0 6 63 c22 219 -97 374 -325 422 -76 16 -227 18 -299 4z"/>
</g>
</svg>
